<svg class="icon" style="width: 192px;height: 192px;vertical-align: middle;fill: currentColor;overflow: hidden;" viewBox="0 0 1554 1024" version="1.1" xmlns="http://www.w3.org/2000/svg" width="192px" height="192px">
<path d="M923.410286 365.714286s-62.646857-114.523429-172.653715-130.523429c-145.627429-21.138286-251.062857-0.841143-241.481142-94.555428 6.948571-68.315429-72.740571-107.446857-97.609143-69.010286-24.868571 38.454857 31.963429 164.809143 31.963428 164.809143s-141.824-45.714286-131.547428-146.157715c10.24-100.461714-49.938286-110.409143-91.264-62.537142C188.16 65.517714 184.429714 263.625143 375.405714 306.669714c190.957714 43.044571 271.945143 18.596571 347.355429 31.707429 75.392 13.092571 118.784 100.333714 118.784 100.333714l81.846857-73.014857z" fill="#FEB800"></path>
<path d="M766.116571 350.500571s-82.578286-97.115429-193.426285-96.420571c-146.761143 0.877714-247.058286 37.302857-253.293715-58.112-4.571429-69.540571-89.453714-96.64-107.52-54.326857-18.029714 42.294857 58.971429 160.329143 58.971429 160.329143S123.702857 277.705143 117.028571 175.469714C110.409143 73.197714 49.517714 72.338286 16.859429 126.628571-8.96 169.453714 20.48 368.585143 215.478857 382.72c194.998857 14.134857 270.573714-22.674286 346.88-20.992 76.361143 1.645714 133.632 82.523429 133.632 82.523429l70.125714-93.769143z" fill="#FFE052"></path>
<path d="M274.486857 851.309714C144.548571 881.481143 2.834286 722.102857 2.834286 722.102857l298.148571-86.198857c3.510857-0.768 6.948571-1.627429 10.185143-2.56 4.370286-1.188571 8.448-2.505143 12.178286-3.894857L68.553143 602.349714l189.988571-124.214857c62.902857-43.483429 118.820571-90.093714 175.670857-105.984 63.305143-17.664 192.548571-38.912 179.748572-2.194286l43.52 3.84-36.717714 94.08c0.091429 1.024 13.074286 99.968 24.100571 191.488 9.197714 19.638857 82.029714 57.526857 155.593143 74.477715l118.948571 27.428571-76.397714 95.268572c-67.328 83.986286-156.233143 118.546286-203.190857 131.657142-6.857143 1.92-12.891429 3.382857-17.865143 4.48-13.421714 7.04-27.739429 12.690286-42.642286 16.822858-106.605714 29.805714-214.235429-23.643429-226.194285-29.805715l-124.891429-64.859428 122.075429-69.705143 24.137142-13.805714c-14.445714 8.283429-62.244571 16.274286-99.949714 19.986285" fill="#D33610"></path>
<path d="M572.452571 493.074286s-138.496-11.446857-230.875428 97.773714l131.730286 13.275429s-4.937143 85.138286-127.908572 111.981714c0 0 86.217143 74.020571 182.272 54.601143 96.036571-19.456-13.513143 80.493714-13.513143 80.493714l-100.333714 55.552s117.997714 58.294857 204.909714 6.454857c0 0 111.36-16.676571 187.245715-107.373714 0 0-200.630857-42.550857-210.980572-130.468572-10.349714-87.917714-22.546286-182.308571-22.546286-182.308571" fill="#FF7D20"></path>
<path d="M1445.266286 696.228571s-29.988571 101.357714 70.436571 122.148572c0 0-94.354286 39.442286-140.397714-38.637714 0 0-12.068571 83.584-63.213714 101.686857 0 0 15.561143-51.748571-6.509715-61.915429-22.089143-10.148571-37.888-3.84-39.497143 22.089143-1.627429 25.984-19.072 45.494857-42.752 48.530286 0 0 15.323429-20.717714-4.425142-47.945143 0 0-28.580571-21.028571-40.667429-1.225143-12.105143 19.821714-46.482286 47.744-74.843429 46.665143 0 0 54.857143-42.843429-11.373714-73.307429 0 0-6.985143-25.344 37.632-28.836571 44.617143-3.510857 144.091429-37.083429 170.605714-42.788572 26.477714-5.668571 145.005714-46.445714 145.005715-46.445714" fill="#D33610"></path>
<path d="M983.625143 504.484571s-14.226286-203.081143-207.140572-154.532571c-192.896 48.530286-241.645714 120.576-244.48 243.456-2.797714 122.88 73.581714 298.313143 254.811429 268.672 130.340571-21.321143 166.217143-44.617143 166.217143-44.617143s52.187429 68.571429 342.747428-28.452571c0 0 192.914286-48.566857 180.772572-130.121143 0 0-232.192 59.52-333.165714 77.092571-100.973714 17.554286-129.426286-27.574857-54.966858-64.292571 74.459429-36.717714 377.526857-110.701714 421.778286-138.989714 34.468571-21.997714 13.604571-46.262857 13.604572-46.262858s57.545143-21.394286 0.64-111.670857c-56.905143-90.294857-102.857143-141.184-230.546286-105.545143-127.689143 35.657143-83.748571 193.28-83.748572 193.28l-226.523428 41.984z" fill="#FFCE19"></path>
<path d="M1366.528 429.494857c5.540571 21.302857 18.505143 36.041143 28.946286 32.859429 10.459429-3.163429 14.464-23.04 8.96-44.324572-5.540571-21.321143-18.505143-36.059429-28.964572-32.859428-10.459429 3.163429-14.445714 23.04-8.941714 44.324571M669.293714 680.484571c73.069714 90.441143 205.074286 106.130286 294.912 34.998858 89.782857-71.131429 103.369143-202.130286 30.317715-292.571429-73.051429-90.459429-205.110857-106.130286-294.893715-35.017143-89.837714 71.113143-103.387429 202.112-30.354285 292.571429" fill="#D33610"></path>
<path d="M699.593143 666.733714c52.205714 64.621714 146.523429 75.812571 210.651428 25.014857 64.146286-50.797714 73.856-144.347429 21.686858-209.005714-52.187429-64.585143-146.505143-75.776-210.651429-24.996571-64.146286 50.834286-73.874286 144.384-21.686857 208.987428" fill="#FFFFFF"></path>
<path d="M911.542857 696.301714c47.067429-37.266286 54.180571-105.874286 15.908572-153.270857-38.272-47.378286-107.428571-55.570286-154.477715-18.322286-47.030857 37.266286-54.144 105.874286-15.872 153.252572 38.272 47.396571 107.428571 55.606857 154.459429 18.340571" fill="#0F3A88"></path>
<path d="M783.634286 650.020571c13.897143 17.225143 39.04 20.224 56.192 6.674286 17.078857-13.531429 19.638857-38.491429 5.778285-55.734857-13.952-17.225143-39.094857-20.205714-56.192-6.656-17.133714 13.531429-19.693714 38.509714-5.778285 55.716571" fill="#FFFFFF"></path>
<path d="M906.788571 358.619429s-101.595429-88.996571-254.262857-7.862858c-152.704 81.115429-222.116571 80.164571-222.116571 80.164572l67.712 40.118857-116.059429 7.131429s50.596571 108.617143 263.917715-6.070858c229.961143-123.611429 260.809143-113.481143 260.809142-113.481142" fill="#FF7D20"></path>
<path d="M1020.196571 736.987429c-14.774857-52.589714-3.053714-69.723429 76.196572-109.366858 79.232-39.68 433.554286-144.566857 433.554286-144.566857s18.212571 26.404571-17.115429 48.585143c-45.403429 28.507429-347.794286 103.241143-424.118857 140.306286-76.361143 37.101714-47.414857 82.230857 55.990857 64.237714 103.405714-17.993143 334.372571-77.952 334.372571-77.952 1.28 13.531429-4.845714 27.556571-12.105142 38.985143-83.053714 21.321143-241.993143 61.897143-287.707429 71.899429-61.312 13.458286-143.286857 24.027429-159.067429-32.128" fill="#FFE052"></path>
</svg>